<?xml version="1.0" encoding="iso-8859-1"?>
<!-- Generator: Adobe Illustrator 19.0.0, SVG Export Plug-In . SVG Version: 6.00 Build 0)  -->
<svg version="1.1" id="Layer_1" xmlns="http://www.w3.org/2000/svg" xmlns:xlink="http://www.w3.org/1999/xlink" x="0px" y="0px"
	 viewBox="0 0 512 512" style="enable-background:new 0 0 512 512;" xml:space="preserve">
<path style="fill:#8FE673;" d="M424.938,318.985l-62.867-145.398l3.641-52.5c0.314-4.52-3.097-8.438-7.616-8.752
	c-4.519-0.318-8.438,3.097-8.75,7.616l-3.28,47.298l-174.093,10.349l-9.872-54.548c-0.004-0.026-0.013-0.05-0.018-0.077
	c-0.681-3.67-3.87-6.381-7.556-6.643c-0.14-0.01-0.281-0.016-0.422-0.02c-0.025,0-0.05-0.004-0.077-0.004h-45.177l-7.84,9.416
	l7.84,6.992h38.324l9.448,52.21L87.311,318.461c-2.087,4.021-0.52,8.974,3.502,11.061c4.021,2.087,8.973,0.52,11.061-3.502
	l64.423-124.117L267.955,344.59c0.024,0.035,0.055,0.065,0.08,0.1c1.754,2.358,4.678,3.637,7.604,3.283l142.772-17.591
	c2.565-0.316,4.831-1.823,6.116-4.066C425.812,324.074,425.964,321.357,424.938,318.985z M273.254,323.753l-92.777-130.225
	l159.846-9.502L273.254,323.753z M288.526,329.854L353.36,194.78l52.169,120.658L288.526,329.854z"/>
<path style="opacity:0.1;enable-background:new    ;" d="M363.27,156.302l2.443-35.215c0.314-4.52-3.097-8.438-7.616-8.752
	c-4.519-0.318-8.438,3.097-8.75,7.616l-2.521,36.351H363.27z"/>
<g>
	<path style="fill:#4B4B4B;" d="M386.831,95.167h-37.926c-21.683,0-39.259,17.578-39.259,39.259l0,0h77.185
		c10.841,0,19.63-8.789,19.63-19.63l0,0C406.46,103.956,397.672,95.167,386.831,95.167z"/>
	<path style="fill:#4B4B4B;" d="M94.592,227.648C42.35,227.648,0,270,0,322.241s42.35,94.592,94.592,94.592
		s94.592-42.35,94.592-94.592S146.833,227.648,94.592,227.648z M94.592,384.929c-34.621,0-62.687-28.066-62.687-62.687
		s28.066-62.687,62.687-62.687s62.687,28.066,62.687,62.687S129.213,384.929,94.592,384.929z"/>
</g>
<path style="opacity:0.1;enable-background:new    ;" d="M408.461,280.877c-5.487,1.186-10.579,3.437-15.052,6.528l12.121,28.034
	l-30.323,3.736c-0.073,1.014-0.124,2.034-0.124,3.066c0,4.616,0.753,9.057,2.125,13.219c16.918-2.085,41.203-5.076,41.203-5.076
	c2.565-0.316,4.831-1.823,6.116-4.066c1.284-2.243,1.436-4.96,0.411-7.333L408.461,280.877z"/>
<circle style="fill:#4B4B4B;" cx="417.409" cy="322.237" r="20.449"/>
<path style="opacity:0.1;enable-background:new    ;" d="M106.437,281.615l-19.125,36.847c-2.087,4.021-0.52,8.974,3.502,11.061
	c4.021,2.087,8.973,0.52,11.061-3.502l19.117-36.828C116.73,285.783,111.804,283.182,106.437,281.615z"/>
<g>
	<circle style="fill:#4B4B4B;" cx="94.593" cy="322.237" r="20.449"/>
	<path style="fill:#4B4B4B;" d="M417.408,227.648c-52.242,0-94.592,42.35-94.592,94.592s42.35,94.592,94.592,94.592
		c52.241,0,94.592-42.35,94.592-94.592S469.65,227.648,417.408,227.648z M417.408,384.929c-34.621,0-62.687-28.066-62.687-62.687
		s28.066-62.687,62.687-62.687s62.687,28.066,62.687,62.687S452.03,384.929,417.408,384.929z"/>
	<path style="fill:#4B4B4B;" d="M76.877,148.281c0,17.631,14.344,31.974,31.974,31.974h10.818c4.531,0,8.204-3.673,8.204-8.204
		s-3.673-8.204-8.204-8.204h-10.818c-8.584,0-15.567-6.984-15.567-15.567c0-8.583,6.983-15.567,15.567-15.567v-16.407
		C91.222,116.307,76.877,130.65,76.877,148.281z"/>
	<circle style="fill:#4B4B4B;" cx="274.634" cy="339.836" r="29.664"/>
</g>
<g>
</g>
<g>
</g>
<g>
</g>
<g>
</g>
<g>
</g>
<g>
</g>
<g>
</g>
<g>
</g>
<g>
</g>
<g>
</g>
<g>
</g>
<g>
</g>
<g>
</g>
<g>
</g>
<g>
</g>
</svg>
