<?xml version="1.0" encoding="utf-8"?>
<!-- Generator: Adobe Illustrator 12.0.0, SVG Export Plug-In . SVG Version: 6.00 Build 51448)  -->
<!DOCTYPE svg PUBLIC "-//W3C//DTD SVG 1.1//EN" "http://www.w3.org/Graphics/SVG/1.1/DTD/svg11.dtd" [
	<!ENTITY ns_svg "http://www.w3.org/2000/svg">
	<!ENTITY ns_xlink "http://www.w3.org/1999/xlink">
]>
<svg  version="1.1" id="Layer_1" xmlns="&ns_svg;" xmlns:xlink="&ns_xlink;" width="181.172" height="226.771"
	 viewBox="0 0 181.172 226.771" overflow="visible" enable-background="new 0 0 181.172 226.771" xml:space="preserve">
<g>
	<path fill="#FFFFFF" d="M167.078,125.534c0,45.216-36.093,81.865-80.619,81.865c-44.529,0-80.624-36.649-80.624-81.865
		c0-45.209,36.095-81.86,80.624-81.86C130.985,43.674,167.078,80.325,167.078,125.534z"/>
	<path fill="#B2B2B2" d="M167.078,125.541c0,6.512-1.971,12.993-1.454,19.311c0.34,4.149,2.295,8.367,2.97,12.511
		c1.162,7.147,2.15,18.554-8.247,18.059c7.018,8.784-2.223,12.209-9.177,14.712c-5.439,1.957-4.425,1.434-7.439,4.914
		c-2.692,3.11-2.978,5.331-6.756,7.731c-6.675,4.254-16.273,4.916-23.429,8.047c-7.788,3.411-15.079,6.253-21.454-0.395
		c-10.275,5.839-22.07,11.372-28.708-1.267c-4.651,0.367-7.896,2.048-12.562-0.058c-5.485-2.478-6.642-9.234-10.746-12.675
		c-4.327-3.636-7.941-0.304-12.84-3.496c-3.989-2.602-3.49-7.656-6.79-10.352c-2.728-2.229-7.002-1.229-9.902-3.355
		c-6.178-4.525-4.622-13.504-0.148-18.78c5.104,5.076,9.076,10.368,15.075,14.33c0.898,0.594,18.257,8.188,17.255,4.639
		c2.77,9.821,12.168,6.87,18.833,2.599c1.072,2.71,1.415,5.747,1.419,8.601c15.832,11.064,35.2,10.383,53.077,3.043
		c11.479-4.714,22.27-12.799,27.191-24.611c5.085-12.2-4.294-18.364-3.514-29.26c0.305-4.266,5.519-9.137,7.142-13.41
		c2.005-5.272,2.99-11.09,2.309-16.718c-2.553-21.061-28.662-50.522-51.633-45.869c-14.228,2.885-24.229,15.288-32.639,26.21
		c1.294-1.684,0.867-8.268,1.553-10.618c1.275-4.37,3.494-8.409,5.89-12.254c4.606-7.38,11.045-16.469,19.201-20.229
		c19.535-9.016,43.869,11.105,55.668,24.807C160.03,86.582,167.078,105.933,167.078,125.541z"/>
	<path fill="none" stroke="#000000" stroke-width="5.2623" d="M167.078,125.534c0,12.231-0.365,19.774,2.646,31.584
		c0.848,3.334,2.709,8.135,1.451,11.575c-0.447,1.207-7.189,7.879-7.583,5.393c1.325,8.346,1.58,13.645-7.98,16.468
		c-3.817,1.126-6.495,0.297-8.86,2.595c-2.438,2.377-1.515,6.67-5.389,9.423c-5.086,3.617-11.699,2.96-17.08,4.506
		c-5.42,1.562-3.219,1.79-7.433,4.248c-5.763,3.368-20.473,10.552-24.914,1.704c-6.418,5.758-15.356,9.596-23.452,3.874
		c-2.82-1.988-3.433-5.401-6.599-6.618c-1.857-0.711-5.963,1.108-9.203-0.205c-4.989-2.022-7.219-7.005-11.062-9.781
		c-2.974-2.14-2.388-1.728-6.088-2.909c-8.885-2.825-16.599-4.391-15.651-16.819c-12.606,0.695-14.459-6.17-12.897-16.834
		c1.994-13.61-1.147-24.474-1.147-38.202c0-45.209,36.095-81.86,80.624-81.86C130.985,43.674,167.078,80.325,167.078,125.534z"/>
	<path fill="#BF0000" stroke="#FF0000" stroke-width="4.3232" d="M66.319,86.867c-1.607-5.372,8.329-18.885,11.252-22.576
		c8.851-11.167,32.092-17.763,45.01-11.307c5.687-8.558,7.228-22.115-1.192-29.482c-0.02-0.017-19.512-17.052-36.824,0.824
		c0,0-12.096-23.813-31.98-14.394c0,0-20.218,13.758-7.989,31.728c-1.419-2.083-13.85,7.829-14.905,9.2
		c-3.777,4.895-4.939,11.498-3.737,17.443c2.502,12.384,10.973,21.437,23.939,14.952c0,0,14.015,30.043,13.958,11.453
		C63.796,78.432,66.315,86.859,66.319,86.867z"/>
	<g>
		<ellipse stroke="#FFBF00" stroke-width="5.2623" cx="26.817" cy="110.334" rx="11.696" ry="12.277"/>
		<ellipse fill="#FFFFFF" cx="20.965" cy="104.203" rx="4.097" ry="4.378"/>
	</g>
	<g>
		<ellipse stroke="#FFBF00" stroke-width="5.2623" cx="100.522" cy="111.504" rx="11.696" ry="12.279"/>
		<path fill="#FFFFFF" d="M98.769,105.235c0,2.491-1.771,4.516-3.952,4.516c-2.186,0-3.951-2.024-3.951-4.516
			c0-2.496,1.766-4.516,3.951-4.516C96.997,100.719,98.769,102.739,98.769,105.235z"/>
	</g>
	<path fill="#BF0000" stroke="#FF0000" stroke-width="3.7458" d="M57.622,147.615c-8.452,7.246-16.172,22.693-15.612,33.866
		c0.615,12.329,15.703,17.25,22.272,6.161c1.906,9.081,10.495,20.534,19.54,11.244c7.899-8.113,8.68-25.469,5.867-35.673
		c-1.939-7.055-4.658-11.845-11.813-13.348c-5.353-1.124-15.425-3.987-20.444-1.781"/>
	<path fill="#FF7F00" stroke="#8F0000" stroke-width="3.8972" d="M82.95,148.341c0,10.655-11.521,19.294-25.728,19.294
		c-6.117,0-25.778-12.293-29.625-4.885c-4.274-19.007,11.184-33.707,29.625-33.707C71.429,129.043,82.95,137.687,82.95,148.341z"/>
</g>
</svg>
