<svg xmlns="http://www.w3.org/2000/svg" version="1.1" xmlns:xlink="http://www.w3.org/1999/xlink" xmlns:svgjs="http://svgjs.com/svgjs" width="512" height="512" x="0" y="0" viewBox="0 0 24 24" style="enable-background:new 0 0 512 512" xml:space="preserve" class=""><g><path xmlns="http://www.w3.org/2000/svg" d="m18 12a1 1 0 0 0 -1-1h-10a1 1 0 0 0 0 2h10a1 1 0 0 0 1-1z" fill="#000000" data-original="#000000"></path><path xmlns="http://www.w3.org/2000/svg" d="m21 6a1 1 0 0 0 -1-1h-16a1 1 0 0 0 0 2h16a1 1 0 0 0 1-1z" fill="#000000" data-original="#000000"></path><path xmlns="http://www.w3.org/2000/svg" d="m9 17a1 1 0 0 0 0 2h6a1 1 0 0 0 0-2z" fill="#000000" data-original="#000000"></path></g></svg>