<svg xmlns="http://www.w3.org/2000/svg" version="1.1" xmlns:xlink="http://www.w3.org/1999/xlink" xmlns:svgjs="http://svgjs.com/svgjs" width="512" height="512" x="0" y="0" viewBox="0 0 640 640" style="enable-background:new 0 0 512 512" xml:space="preserve" class=""><g><path xmlns="http://www.w3.org/2000/svg" d="m300.585938 101.449219-15.308594-101.449219h-224.601563c-33.820312 0-60.675781 27.554688-60.675781 61.371094v424.71875c0 33.816406 26.855469 60.8125 60.675781 60.8125h213.054688l153.492187-232.402344v-165.734375zm0 0" fill="#00acea" data-original="#00acea"></path><path xmlns="http://www.w3.org/2000/svg" d="m285.277344.140625 141.527344 148.625h-94.210938c-26.164062 0-47.316406-21.152344-47.316406-47.316406zm0 0" fill="#00efd1" data-original="#00efd1"></path><g xmlns="http://www.w3.org/2000/svg" fill="#083863"><path d="m293.769531 332.59375c0-7.652344-6.265625-13.917969-13.917969-13.917969h-181.324218c-7.652344 0-13.917969 6.265625-13.917969 13.917969 0 7.65625 6.265625 13.914062 13.917969 13.914062h181.324218c7.796876 0 13.917969-6.257812 13.917969-13.914062zm0 0" fill="#083863" data-original="#083863"></path><path d="m98.527344 276.929688h140.96875c7.652344 0 13.917968-6.261719 13.917968-13.917969 0-7.652344-6.265624-13.914063-13.917968-13.914063h-140.96875c-7.652344 0-13.917969 6.261719-13.917969 13.914063 0 7.65625 6.265625 13.917969 13.917969 13.917969zm0 0" fill="#083863" data-original="#083863"></path><path d="m234.066406 389.648438h-135.539062c-7.652344 0-13.917969 6.265624-13.917969 13.914062 0 7.65625 6.265625 13.917969 13.917969 13.917969h135.539062c7.65625 0 13.917969-6.261719 13.917969-13.917969 0-7.648438-6.261719-13.914062-13.917969-13.914062zm0 0" fill="#083863" data-original="#083863"></path></g><path xmlns="http://www.w3.org/2000/svg" d="m426.804688 286.8125c86.28125 12.101562 152.65625 86.136719 152.65625 175.753906 0 97.96875-79.457032 177.433594-177.425782 177.433594-67.351562 0-126.078125-37.574219-156-92.960938-13.636718-25.1875-21.429687-53.992187-21.429687-84.609374 0-97.96875 79.460937-177.429688 177.429687-177.429688 8.351563.140625 16.558594.699219 24.769532 1.8125zm0 0" fill="#fedb41" data-original="#fedb41"></path><path xmlns="http://www.w3.org/2000/svg" d="m461.734375 510.160156c12.941406-17.113281 20.039063-37.851562 20.039063-59.558594 0-54.6875-44.53125-99.082031-99.363282-99.082031-54.828125 0-99.359375 44.394531-99.359375 99.082031 0 54.691407 44.53125 99.085938 99.359375 99.085938 21.851563 0 42.585938-6.957031 59.5625-19.765625l40.914063 40.632813c2.78125 2.648437 6.261719 4.039062 9.882812 4.039062 3.617188 0 7.097657-1.390625 9.882813-4.039062 5.421875-5.421876 5.421875-14.191407 0-19.617188zm-150.851563-59.558594c0-39.246093 32.148438-71.25 71.527344-71.25 39.386719 0 71.53125 32.003907 71.53125 71.25 0 19.066407-7.515625 37.015626-21.011718 50.375-13.5 13.359376-31.449219 20.875-50.519532 20.875-39.519531 0-71.527344-32.007812-71.527344-71.25zm0 0" fill="#083863" data-original="#083863"></path></g></svg>